# xmcd
#
# Track frame offsets:
#	150
#	18305
#	47718
#
# Disc length: 883 seconds
#
# Revision: 6
# Processed by: cddbd v1.5.2PL0 Copyright (c) Steve Scherf et al.
# Submitted via: EasyCDDAExtractor 2010.6.0.0
#
DISCID=1b037103
DTITLE=Exposé - Tell Me Why
DYEAR=1989
DGENRE=Dance
TTITLE0=Tell Me Why
TTITLE1=Tell Me Why (12" Remix)
TTITLE2=Let Me Down Easy
EXTD=
EXTT0=
EXTT1=
EXTT2=
PLAYORDER=
